<svg width="405" height="443" viewBox="0 0 405 443" fill="none" xmlns="http://www.w3.org/2000/svg">
<line x1="25.9717" y1="41.4592" x2="372.113" y2="404.418" stroke="#81CEF9" stroke-width="9.80969"/>
<line x1="373.295" y1="73.6704" x2="38.3646" y2="383.376" stroke="#81CEF9" stroke-width="9.80969"/>
<line x1="373.469" y1="70.0692" x2="373.469" y2="407.803" stroke="#81CEF9" stroke-width="9.80969"/>
<circle cx="35.0346" cy="35.0346" r="35.0346" fill="#19AAFC"/>
<circle cx="368.564" cy="242.439" r="35.0346" fill="#19AAFC"/>
<path d="M70.0692 215.813C70.0692 235.162 54.3837 250.848 35.0346 250.848C15.6855 250.848 0 235.162 0 215.813C0 196.464 15.6855 180.779 35.0346 180.779C54.3837 180.779 70.0692 196.464 70.0692 215.813Z" fill="#19AAFC"/>
<circle cx="369.965" cy="407.803" r="35.0346" fill="#19AAFC"/>
<circle cx="368.564" cy="70.0692" r="35.0346" fill="#19AAFC"/>
<circle cx="36.436" cy="379.775" r="35.0346" fill="#19AAFC"/>
<line x1="23.3648" y1="32.3799" x2="356.894" y2="57.6048" stroke="#19AAFC" stroke-width="25"/>
<line x1="34.9221" y1="35.0346" x2="34.9221" y2="372.768" stroke="#19AAFC" stroke-width="25"/>
<line x1="37.3787" y1="370.113" x2="370.908" y2="395.338" stroke="#19AAFC" stroke-width="25"/>
<line x1="35.9773" y1="213.158" x2="369.507" y2="238.383" stroke="#19AAFC" stroke-width="25"/>
</svg>
